<svg xmlns="http://www.w3.org/2000/svg" viewBox="0 0 32 32" fill="none">
  <!-- Background circle -->
  <circle cx="16" cy="16" r="15" fill="#dc2626" stroke="#7f1d1d" stroke-width="2"/>
  
  <!-- Flame icon for "La Leña" (The Firewood) -->
  <path d="M16 8c-1.5 2-3 3-3 5.5c0 1.5.5 2.5 1.5 3.5c-.5-1.5 0-2.5 1-3.5c.5 1 1 1.5 1.5 2.5c.5-1 1.5-2 1.5-3.5c0-2.5-1.5-3.5-3-4.5z" fill="#fbbf24"/>
  <path d="M13 14c0 3.5 2 6 3 6s3-2.5 3-6c0-.5-.1-1-.2-1.5c-.3 1-.8 1.5-1.3 1.5c-.5-1-1-1.5-1.5-2c-.5.5-1 1-1.5 2c-.5 0-1-.5-1.3-1.5c-.1.5-.2 1-.2 1.5z" fill="#f59e0b"/>
  
  <!-- Grill lines -->
  <rect x="11" y="21" width="10" height="1" rx="0.5" fill="white"/>
  <rect x="11" y="23" width="10" height="1" rx="0.5" fill="white"/>
</svg>